<?xml version="1.0" encoding="utf-8"?>
<!-- Generator: Adobe Illustrator 16.0.0, SVG Export Plug-In . SVG Version: 6.00 Build 0)  -->
<!DOCTYPE svg PUBLIC "-//W3C//DTD SVG 1.1//EN" "http://www.w3.org/Graphics/SVG/1.1/DTD/svg11.dtd">
<svg version="1.1" xmlns="http://www.w3.org/2000/svg" xmlns:xlink="http://www.w3.org/1999/xlink" x="0px" y="0px"
	 width="200.167px" height="194.665px" viewBox="0 0 200.167 194.665" enable-background="new 0 0 200.167 194.665"
	 xml:space="preserve">
<g id="Capa_1">
</g>
<g id="Layer_3">
	<polyline fill="#6ACAD6" points="189.071,9.563 13.533,9.563 13.533,57.988 189.071,57.988 	"/>
	<g>
		<g>
			<g>
				<path d="M7.479,3.51v60.531h187.645V3.51H7.479z M189.071,57.988H13.533V9.563h175.538V57.988z"/>
				<path d="M161.833,45.881c3.078,0,5.938-0.935,8.332-2.521l10.714,10.714l4.279-4.28l-10.714-10.714
					c1.586-2.394,2.521-5.254,2.521-8.332c0-8.344-6.789-15.133-15.133-15.133S146.7,22.404,146.7,30.749
					S153.489,45.881,161.833,45.881z M161.833,21.669c5.006,0,9.08,4.074,9.08,9.08s-4.074,9.08-9.08,9.08s-9.08-4.074-9.08-9.08
					S156.827,21.669,161.833,21.669z"/>
				<rect x="98.275" y="70.094" width="6.053" height="6.053"/>
				<path d="M179.992,155.108v-33.563h-75.663V82.199h-6.053v39.346H22.612v33.563c-8.575,1.451-15.133,8.908-15.133,17.887
					c0,10.016,8.145,18.16,18.159,18.16c10.015,0,18.159-8.145,18.159-18.16c0-8.979-6.559-16.436-15.132-17.887v-27.51h45.397
					v27.51c-8.574,1.447-15.132,8.904-15.132,17.887c0,10.016,8.145,18.16,18.159,18.16c10.015,0,18.16-8.145,18.16-18.16
					c0-8.979-6.559-16.436-15.133-17.887v-27.51h42.372v27.51c-8.574,1.447-15.133,8.904-15.133,17.887
					c0,10.016,8.145,18.16,18.159,18.16s18.159-8.145,18.159-18.16c0-8.979-6.559-16.436-15.133-17.887v-27.51h45.398v27.51
					c-8.574,1.447-15.133,8.904-15.133,17.887c0,10.016,8.145,18.16,18.159,18.16s18.159-8.145,18.159-18.16
					C195.125,164.016,188.566,156.559,179.992,155.108z M37.745,172.995c0,6.678-5.429,12.107-12.106,12.107
					s-12.106-5.43-12.106-12.107c0-6.676,5.429-12.105,12.106-12.105S37.745,166.319,37.745,172.995z M89.196,172.995
					c0,6.678-5.43,12.107-12.107,12.107c-6.676,0-12.105-5.43-12.105-12.107c0-6.676,5.429-12.105,12.105-12.105
					C83.766,160.889,89.196,166.319,89.196,172.995z M137.621,172.995c0,6.678-5.43,12.107-12.106,12.107
					s-12.105-5.43-12.105-12.107c0-6.676,5.429-12.105,12.105-12.105S137.621,166.319,137.621,172.995z M176.965,185.102
					c-6.677,0-12.106-5.43-12.106-12.107c0-6.676,5.43-12.105,12.106-12.105s12.105,5.43,12.105,12.105
					C189.071,179.672,183.642,185.102,176.965,185.102z"/>
				<polygon points="34.255,51.934 36.231,40.08 38.208,51.934 46.279,51.934 52.817,19.235 52.877,15.616 46.825,15.616 
					46.825,18.343 42.417,40.376 40.309,27.722 32.155,27.722 30.045,40.376 25.639,18.343 25.639,15.616 19.585,15.616 
					19.585,18.643 26.183,51.934 				"/>
				<polygon points="73.6,51.934 75.577,40.08 77.552,51.934 85.625,51.934 92.162,19.235 92.222,15.616 86.169,15.616 
					86.169,18.343 81.763,40.376 79.653,27.722 71.5,27.722 69.39,40.376 64.984,18.343 64.984,15.616 58.931,15.616 58.931,18.643 
					65.528,51.934 				"/>
				<polygon points="112.945,51.934 114.921,40.08 116.898,51.934 124.969,51.934 131.507,19.235 131.568,15.616 125.514,15.616 
					125.514,18.343 121.108,40.376 118.998,27.722 110.844,27.722 108.735,40.376 104.329,18.343 104.329,15.616 98.275,15.616 
					98.275,18.643 104.874,51.934 				"/>
				<rect x="52.877" y="45.881" width="6.053" height="6.053"/>
				<rect x="92.222" y="45.881" width="6.053" height="6.053"/>
			</g>
		</g>
	</g>
	<circle fill="#E43445" cx="25.468" cy="173.104" r="12.461"/>
	<circle fill="#E43445" cx="77.509" cy="173.104" r="12.461"/>
	<circle fill="#E43445" cx="125.704" cy="173.104" r="12.461"/>
	<circle fill="#E43445" cx="177.013" cy="173.104" r="12.46"/>
	<circle fill="#E43445" cx="161.834" cy="30.447" r="9.438"/>
</g>
<g id="Layer_2">
</g>
</svg>
