<?xml version="1.0" encoding="utf-8"?>
<!-- Generator: Adobe Illustrator 16.0.0, SVG Export Plug-In . SVG Version: 6.00 Build 0)  -->
<!DOCTYPE svg PUBLIC "-//W3C//DTD SVG 1.1//EN" "http://www.w3.org/Graphics/SVG/1.1/DTD/svg11.dtd">
<svg version="1.1" xmlns="http://www.w3.org/2000/svg" xmlns:xlink="http://www.w3.org/1999/xlink" x="0px" y="0px"
	 width="200.167px" height="194.665px" viewBox="0 0 200.167 194.665" enable-background="new 0 0 200.167 194.665"
	 xml:space="preserve">
<g id="Capa_1">
	<g>
		<g>
			<g>
				<path fill="#020202" d="M61.617,118.928h115.241l20.39-72.783h-30.006l-10.775-33.28l-44.93,14.565l6.145,18.715h-2.115
					l-11.093-33.28L59.542,27.431l6.145,18.715H41.666l-4.988-19.952C34.164,16.218,25.465,9.154,15.449,9.154H1.723v8.34h13.726
					c6.225,0,11.652,4.15,13.328,10.416l22.066,86.35c-4.548,3.271-7.542,8.619-7.542,14.727c0,9.975,8.34,18.313,18.315,18.313
					h112.328v-8.338H61.617c-5.426,0-9.976-4.59-9.976-9.977C51.642,123.518,56.23,118.928,61.617,118.928L61.617,118.928z
					 M151.08,23.24l7.502,22.465h-32.439l-4.589-12.889L151.08,23.24z M99.086,23.24l7.501,22.465H74.146l-4.589-12.889
					L99.086,23.24z M186.435,54.045l-15.803,56.583H58.305L43.741,54.045H186.435L186.435,54.045z"/>
				<path fill="#020202" d="M137.353,159.709c-9.577,0-17.479,7.9-17.479,17.479c0,9.576,7.901,17.477,17.479,17.477
					c9.977,0,17.479-7.9,17.479-17.477C154.832,167.61,146.93,159.709,137.353,159.709z M137.353,186.762
					c-5.428,0-9.577-4.588-9.577-9.574c0-5.428,4.589-9.576,9.577-9.576c5.427,0,9.577,4.148,9.577,9.576
					C146.93,182.614,142.341,186.762,137.353,186.762z"/>
				<path fill="#020202" d="M73.269,159.709c-9.576,0-17.477,7.9-17.477,17.479c0,9.576,7.901,17.477,17.477,17.477
					c9.577,0,17.478-7.9,17.478-17.477C90.747,167.61,82.846,159.709,73.269,159.709z M73.269,186.762
					c-5.426,0-9.576-4.588-9.576-9.574c0-5.428,4.589-9.576,9.576-9.576c4.988,0,9.577,4.148,9.577,9.576
					C82.846,182.614,78.257,186.762,73.269,186.762z"/>
			</g>
		</g>
	</g>
	<circle fill="#E53445" cx="73.583" cy="177.187" r="10"/>
	<circle fill="#E53445" cx="137.353" cy="177.187" r="10"/>
</g>
<g id="Layer_3">
	<polygon fill="#E53445" points="151.08,23.24 121.553,32.816 126.142,45.705 158.582,45.705 	"/>
</g>
<g id="Layer_2">
	<polyline fill="#E53445" points="99.086,23.24 69.557,32.816 74.146,45.705 106.587,45.705 	"/>
	<polyline fill="#6ACAD6" points="186.435,54.045 43.741,54.045 58.305,110.627 170.632,110.627 	"/>
</g>
</svg>
